<svg width="24" height="23" viewBox="0 0 24 23" fill="none" xmlns="http://www.w3.org/2000/svg">
<path d="M19 3.68274H5C4.20435 3.68274 3.44129 3.97374 2.87868 4.49171C2.31607 5.00969 2 5.71222 2 6.44475V15.6514C2 16.384 2.31607 17.0865 2.87868 17.6045C3.44129 18.1225 4.20435 18.4135 5 18.4135H19C19.7956 18.4135 20.5587 18.1225 21.1213 17.6045C21.6839 17.0865 22 16.384 22 15.6514V6.44475C22 5.71222 21.6839 5.00969 21.1213 4.49171C20.5587 3.97374 19.7956 3.68274 19 3.68274ZM5 16.5721C4.73478 16.5721 4.48043 16.4751 4.29289 16.3025C4.10536 16.1298 4 15.8956 4 15.6514V13.4234L7.3 10.3944C7.48693 10.2257 7.73825 10.1312 8 10.1312C8.26175 10.1312 8.51307 10.2257 8.7 10.3944L15.41 16.5721H5ZM20 15.6514C20 15.8956 19.8946 16.1298 19.7071 16.3025C19.5196 16.4751 19.2652 16.5721 19 16.5721H18.23L14.42 13.0459L15.3 12.2358C15.4869 12.0671 15.7382 11.9726 16 11.9726C16.2618 11.9726 16.5131 12.0671 16.7 12.2358L20 15.2648V15.6514ZM20 12.6685L18.12 10.9468C17.5501 10.4427 16.7904 10.1611 16 10.1611C15.2096 10.1611 14.4499 10.4427 13.88 10.9468L13 11.757L10.12 9.10548C9.55006 8.60136 8.79036 8.31981 8 8.31981C7.20964 8.31981 6.44994 8.60136 5.88 9.10548L4 10.8271V6.44475C4 6.20057 4.10536 5.9664 4.29289 5.79374C4.48043 5.62108 4.73478 5.52408 5 5.52408H19C19.2652 5.52408 19.5196 5.62108 19.7071 5.79374C19.8946 5.9664 20 6.20057 20 6.44475V12.6685Z" fill="#023E65"/>
</svg>
